<?xml version="1.0" standalone="no"?><!DOCTYPE svg PUBLIC "-//W3C//DTD SVG 1.1//EN" "http://www.w3.org/Graphics/SVG/1.1/DTD/svg11.dtd"><svg t="1621955185458" class="icon" viewBox="0 0 1024 1024" version="1.1" xmlns="http://www.w3.org/2000/svg" p-id="1184" width="16" height="16" xmlns:xlink="http://www.w3.org/1999/xlink"><defs><style type="text/css"></style></defs><path d="M512 64c247.04 0 448 200.96 448 448S759.04 960 512 960 64 759.04 64 512 264.96 64 512 64z m0 64c-212.064 0-384 171.936-384 384s171.936 384 384 384 384-171.936 384-384-171.936-384-384-384z m32 352v288h-64V480h64z m-32-208a48 48 0 1 1 0 96 48 48 0 0 1 0-96z" p-id="1185"></path></svg>